<svg xmlns="http://www.w3.org/2000/svg" viewBox="0 0 244.39 66.15">
	<defs>
		<style>
		.greeny-logo__text {
			font-size: 60px;
			fill: #fff;
			font-family: FredokaOne-Regular, Fredoka One;
		}

		.greeny-logo__element-1 {
			letter-spacing: -0.03em;
		}

		.greeny-logo__element-2 {
			fill: #fff;
		}

		.greeny-logo__element-3 {
			letter-spacing: -0.03em;
		}
		</style>
	</defs>
	<title>Greeny Logo</title>
	<g id="main-layer" data-name="Main Layer">
		<g id="main-layer__sub" data-name="Sub Layer">
			<text class="greeny-logo__text" transform="translate(0 51.99)">G
				<tspan class="greeny-logo__element-1" x="42.84" y="0">r</tspan>
				<tspan class="greeny-logo__element-2" x="68.46" y="0">ee</tspan>
				<tspan class="greeny-logo__element-3" x="137.22" y="0">n</tspan>
				<tspan x="171.78" y="0">y</tspan>
			</text>
			<path class="greeny-logo__element-2" d="M237.88,15.28s-7.9,9.49-8.39,26.38h0v0a8.61,8.61,0,0,1-.73,2.91c1.18-.58,3.09-1.19,4.09-1.67,18.37-9,4.62-25.79,10.53-35.45,0,0-32.8,15.34-17.28,35.62C226.88,36.49,229.44,23.58,237.88,15.28Z" />
			<path class="greeny-logo__element-2" d="M229.18,45c3.42,2,9.83,6.57,12.31,13.19,0,0-3.25-6.62-12.34-11h0a5.14,5.14,0,0,1-1.41-1.1c0,.78-.1,2-.08,2.64.42,12.2,12.94,8.79,16.76,14.37C244.39,63.09,244,41.48,229.18,45Z" />
			<path class="greeny-logo__element-2" d="M224.87,45h0a5.14,5.14,0,0,1,1.73-.45c-.64-.45-1.5-1.28-2-1.67-9.95-7.07-14.84,4.94-21.59,4.59,0,0,17.4,12.82,23.61-1.1-3.69,1.48-11.19,3.82-18,1.76C208.65,48.09,215.88,49.52,224.87,45Z" />
		</g>
	</g>
</svg>
