<svg style="display:none;" aria-hidden="true" xmlns="http://www.w3.org/2000/svg" xmlns:xlink="http://www.w3.org/1999/xlink"><symbol viewBox="0 0 24 24" id="arrow-icon__arrow"><path d="M22 12l-4-4v3H3v2h15v3z"/><path d="M0 0h24v24H0z" fill="none"/></symbol><symbol viewBox="0 0 19 8" id="arrow-icon__arrow2"><title>Asset 1</title><path d="M19 4l-4-4v3H0v2h15v3z" data-name="Layer 1"/></symbol><symbol viewBox="0 0 24 24" id="bullet-list__bullet"><path d="M0 0h24v24H0z" fill="none"/><path d="M12 2C6.48 2 2 6.48 2 12s4.48 10 10 10 10-4.48 10-10S17.52 2 12 2zm-2 15l-5-5 1.41-1.41L10 14.17l7.59-7.59L19 8l-9 9z"/></symbol><symbol viewBox="0 0 244.39 66.15" id="logo__Greeny-logo"><defs><style>.dgreeny-logo__text{font-size:60px;fill:#1a1a1a;font-family:FredokaOne-Regular,Fredoka One}.dgreeny-logo__element-1{letter-spacing:-.03em}.dgreeny-logo__element-2{fill:#9dc44c}.dgreeny-logo__element-3{letter-spacing:-.03em}</style></defs><title>Greeny Logo</title><g id="dmain-layer" data-name="Main Layer"><g id="dmain-layer__sub" data-name="Sub Layer"><text class="dgreeny-logo__text" transform="translate(0 51.99)">G <tspan class="dgreeny-logo__element-1" x="42.84" y="0">r</tspan> <tspan class="dgreeny-logo__element-2" x="68.46" y="0">ee</tspan> <tspan class="dgreeny-logo__element-3" x="137.22" y="0">n</tspan> <tspan x="171.78" y="0">y</tspan></text><path class="dgreeny-logo__element-2" d="M237.88 15.28s-7.9 9.49-8.39 26.38a8.61 8.61 0 0 1-.73 2.91c1.18-.58 3.09-1.19 4.09-1.67 18.37-9 4.62-25.79 10.53-35.45 0 0-32.8 15.34-17.28 35.62.78-6.58 3.34-19.49 11.78-27.79zM229.18 45c3.42 2 9.83 6.57 12.31 13.19 0 0-3.25-6.62-12.34-11a5.14 5.14 0 0 1-1.41-1.1c0 .78-.1 2-.08 2.64.42 12.2 12.94 8.79 16.76 14.37-.03-.01-.42-21.62-15.24-18.1zM224.87 45a5.14 5.14 0 0 1 1.73-.45c-.64-.45-1.5-1.28-2-1.67-9.95-7.07-14.84 4.94-21.59 4.59 0 0 17.4 12.82 23.61-1.1-3.69 1.48-11.19 3.82-18 1.76.03-.04 7.26 1.39 16.25-3.13z"/></g></g></symbol><symbol viewBox="0 0 24 24" id="menu-button__menu"><path d="M4 10.5c-.83 0-1.5.67-1.5 1.5s.67 1.5 1.5 1.5 1.5-.67 1.5-1.5-.67-1.5-1.5-1.5zm0-6c-.83 0-1.5.67-1.5 1.5S3.17 7.5 4 7.5 5.5 6.83 5.5 6 4.83 4.5 4 4.5zm0 12c-.83 0-1.5.68-1.5 1.5s.68 1.5 1.5 1.5 1.5-.68 1.5-1.5-.67-1.5-1.5-1.5zM7 19h14v-2H7v2zm0-6h14v-2H7v2zm0-8v2h14V5H7z"/><path d="M0 0h24v24H0V0z" fill="none"/></symbol><symbol viewBox="0 0 24 24" id="outline-box__android"><path d="M0 0h24v24H0z" fill="none"/><path d="M6 18c0 .55.45 1 1 1h1v3.5c0 .83.67 1.5 1.5 1.5s1.5-.67 1.5-1.5V19h2v3.5c0 .83.67 1.5 1.5 1.5s1.5-.67 1.5-1.5V19h1c.55 0 1-.45 1-1V8H6v10zM3.5 8C2.67 8 2 8.67 2 9.5v7c0 .83.67 1.5 1.5 1.5S5 17.33 5 16.5v-7C5 8.67 4.33 8 3.5 8zm17 0c-.83 0-1.5.67-1.5 1.5v7c0 .83.67 1.5 1.5 1.5s1.5-.67 1.5-1.5v-7c0-.83-.67-1.5-1.5-1.5zm-4.97-5.84l1.3-1.3c.2-.2.2-.51 0-.71-.2-.2-.51-.2-.71 0l-1.48 1.48A5.84 5.84 0 0 0 12 1c-.96 0-1.86.23-2.66.63L7.85.15c-.2-.2-.51-.2-.71 0-.2.2-.2.51 0 .71l1.31 1.31A5.983 5.983 0 0 0 6 7h12c0-1.99-.97-3.75-2.47-4.84zM10 5H9V4h1v1zm5 0h-1V4h1v1z"/></symbol><symbol viewBox="0 0 24 24" id="outline-box__blocks"><path d="M4 11h5V5H4v6zm0 7h5v-6H4v6zm6 0h5v-6h-5v6zm6 0h5v-6h-5v6zm-6-7h5V5h-5v6zm6-6v6h5V5h-5z"/><path d="M0 0h24v24H0z" fill="none"/></symbol><symbol viewBox="0 0 24 24" id="outline-box__card"><path d="M0 0h24v24H0z" fill="none"/><path d="M20 4H4c-1.11 0-1.99.89-1.99 2L2 18c0 1.11.89 2 2 2h16c1.11 0 2-.89 2-2V6c0-1.11-.89-2-2-2zm0 14H4v-6h16v6zm0-10H4V6h16v2z"/></symbol><symbol viewBox="0 0 24 24" id="search-button__search"><path d="M15.5 14h-.79l-.28-.27A6.471 6.471 0 0 0 16 9.5 6.5 6.5 0 1 0 9.5 16c1.61 0 3.09-.59 4.23-1.57l.27.28v.79l5 4.99L20.49 19l-4.99-5zm-6 0C7.01 14 5 11.99 5 9.5S7.01 5 9.5 5 14 7.01 14 9.5 11.99 14 9.5 14z"/><path d="M0 0h24v24H0z" fill="none"/></symbol><symbol fill="#FFF" viewBox="0 0 24 24" id="slider-row__button-next"><path d="M8.59 16.34l4.58-4.59-4.58-4.59L10 5.75l6 6-6 6z"/><path d="M0-.25h24v24H0z" fill="none"/></symbol><symbol fill="#FFF" viewBox="0 0 24 24" id="slider-row__button-prev"><path d="M15.41 16.09l-4.58-4.59 4.58-4.59L14 5.5l-6 6 6 6z"/><path d="M0-.5h24v24H0z" fill="none"/></symbol><symbol fill="#FFF" viewBox="0 0 24 24" id="slider-row__security"><path d="M12 1L3 5v6c0 5.55 3.84 10.74 9 12 5.16-1.26 9-6.45 9-12V5l-9-4zm0 10.99h7c-.53 4.12-3.28 7.79-7 8.94V12H5V6.3l7-3.11v8.8z"/><path d="M0 0h24v24H0z" fill="none"/></symbol><symbol viewBox="0 0 24 24" id="tab-controls__lightbulb"><defs><path d="M0 0h24v24H0V0z" id="ma"/></defs><clipPath id="mb"><use overflow="visible" xlink:href="#ma"/></clipPath><path clip-path="url(#mb)" d="M9 21c0 .55.45 1 1 1h4c.55 0 1-.45 1-1v-1H9v1zm3-19C8.14 2 5 5.14 5 9c0 2.38 1.19 4.47 3 5.74V17c0 .55.45 1 1 1h6c.55 0 1-.45 1-1v-2.26c1.81-1.27 3-3.36 3-5.74 0-3.86-3.14-7-7-7zm2.85 11.1l-.85.6V16h-4v-2.3l-.85-.6A4.997 4.997 0 0 1 7 9c0-2.76 2.24-5 5-5s5 2.24 5 5c0 1.63-.8 3.16-2.15 4.1z"/></symbol><symbol viewBox="0 0 24 24" id="tab-controls__people"><path d="M0 0h24v24H0z" fill="none"/><path d="M16 11c1.66 0 2.99-1.34 2.99-3S17.66 5 16 5c-1.66 0-3 1.34-3 3s1.34 3 3 3zm-8 0c1.66 0 2.99-1.34 2.99-3S9.66 5 8 5C6.34 5 5 6.34 5 8s1.34 3 3 3zm0 2c-2.33 0-7 1.17-7 3.5V19h14v-2.5c0-2.33-4.67-3.5-7-3.5zm8 0c-.29 0-.62.02-.97.05 1.16.84 1.97 1.97 1.97 3.45V19h6v-2.5c0-2.33-4.67-3.5-7-3.5z"/></symbol><symbol viewBox="0 0 24 24" id="tab-controls__work"><path d="M0 0h24v24H0z" fill="none"/><path d="M20 6h-4V4c0-1.11-.89-2-2-2h-4c-1.11 0-2 .89-2 2v2H4c-1.11 0-1.99.89-1.99 2L2 19c0 1.11.89 2 2 2h16c1.11 0 2-.89 2-2V8c0-1.11-.89-2-2-2zm-6 0h-4V4h4v2z"/></symbol><symbol viewBox="0 0 512 512" id="tree-tabs__tree"><path d="M294.889 361.394c16.534-1.98 30.557-12.114 37.97-26.268 25.231-.707 45.476-21.365 45.476-46.773 0-3.347-.354-6.599-1.025-9.746 17.641-4.172 30.769-20.01 30.769-38.924a39.791 39.791 0 0 0-3.276-15.862c13.517-8.98 22.426-24.335 22.426-41.776 0-17.453-8.909-32.808-22.426-41.788a39.786 39.786 0 0 0 6.352-21.624c0-18.148-12.091-33.468-28.648-38.358.224-1.886.354-3.806.354-5.751 0-26.515-21.495-48.01-48.01-48.01-3.017 0-5.975.295-8.838.825C320.709 11.455 305.731 0 288.066 0 274.938 0 263.295 6.316 256 16.074 248.705 6.316 237.062 0 223.934 0c-17.665 0-32.643 11.455-37.946 27.34a48.57 48.57 0 0 0-8.838-.825c-26.515 0-48.01 21.495-48.01 48.01 0 1.944.13 3.865.354 5.751-16.569 4.891-28.66 20.21-28.66 38.358a39.876 39.876 0 0 0 6.352 21.624c-13.505 8.98-22.414 24.335-22.414 41.788 0 17.441 8.909 32.796 22.414 41.776a39.981 39.981 0 0 0-3.276 15.862c0 18.914 13.14 34.752 30.781 38.924a46.563 46.563 0 0 0-1.025 9.746c0 25.407 20.246 46.065 45.476 46.773 7.412 14.153 21.424 24.288 37.97 26.268" fill="#82b236"/><path d="M218.552 335.127c-25.231-.707-45.476-21.365-45.476-46.773 0-3.347.354-6.599 1.025-9.746-17.641-4.172-30.781-20.01-30.781-38.924a39.981 39.981 0 0 1 3.276-15.862c-13.505-8.98-22.414-24.335-22.414-41.776 0-17.453 8.909-32.808 22.414-41.788a39.879 39.879 0 0 1-6.352-21.624c0-18.148 12.091-33.468 28.66-38.358a48.748 48.748 0 0 1-.354-5.751c0-26.515 21.495-48.01 48.01-48.01 3.017 0 5.975.295 8.838.825 3.151-9.439 9.717-17.313 18.234-22.15A39.812 39.812 0 0 0 223.934 0c-17.665 0-32.643 11.455-37.946 27.34a48.57 48.57 0 0 0-8.838-.825c-26.515 0-48.01 21.495-48.01 48.01 0 1.944.13 3.865.354 5.751-16.569 4.891-28.66 20.21-28.66 38.358a39.876 39.876 0 0 0 6.352 21.624c-13.505 8.98-22.414 24.335-22.414 41.788 0 17.441 8.909 32.796 22.414 41.776a39.981 39.981 0 0 0-3.276 15.862c0 18.914 13.14 34.752 30.781 38.924a46.563 46.563 0 0 0-1.025 9.746c0 25.407 20.246 46.065 45.476 46.773 7.412 14.153 21.424 24.288 37.97 26.268h39.411c-16.546-1.98-30.558-12.115-37.971-26.268z" fill="#789e2e"/><path d="M318.634 258.469l-23.746 23.746V512H217.11V282.215l-39.113-56.554 30.934-30.934 31.347 37.946c10.205 12.35 28.825 13.234 40.15 1.909l18.655-18.643 19.551 42.53z" fill="#cc9758"/><path d="M243.061 298.327V512h-25.949V282.215l-39.113-56.554 18.077-18.077 33.74 48.507a73.964 73.964 0 0 1 13.245 42.236z" fill="#b78349"/><path fill="#cc9758" d="M292.132 327.996l-9.424-14.956 43.016-27.103 9.424 14.957z"/></symbol></svg>