<svg style="display:none;" aria-hidden="true" xmlns="http://www.w3.org/2000/svg" xmlns:xlink="http://www.w3.org/1999/xlink"><symbol viewBox="0 0 24 24" id="arrow-icon__arrow"><path d="M22 12l-4-4v3H3v2h15v3z"/><path d="M0 0h24v24H0z" fill="none"/></symbol><symbol viewBox="0 0 19 8" id="arrow-icon__arrow2"><title>Asset 1</title><path d="M19 4l-4-4v3H0v2h15v3z" data-name="Layer 1"/></symbol><symbol viewBox="0 0 244.39 66.15" id="logo__Greeny-logo"><defs><style>.ccls-1{font-size:60px;fill:#1a1a1a;font-family:FredokaOne-Regular,Fredoka One}.ccls-2{letter-spacing:-.03em}.ccls-3{fill:#9dc44c}.ccls-4{letter-spacing:-.03em}</style></defs><title>Greeny Logo</title><g id="cmain-layer" data-name="Main Layer"><g id="cmain-layer__sub" data-name="Sub Layer"><text class="ccls-1" transform="translate(0 51.99)">G <tspan class="ccls-2" x="42.84" y="0">r</tspan> <tspan class="ccls-3" x="68.46" y="0">ee</tspan> <tspan class="ccls-4" x="137.22" y="0">n</tspan> <tspan x="171.78" y="0">y</tspan></text><path class="ccls-3" d="M237.88 15.28s-7.9 9.49-8.39 26.38a8.61 8.61 0 0 1-.73 2.91c1.18-.58 3.09-1.19 4.09-1.67 18.37-9 4.62-25.79 10.53-35.45 0 0-32.8 15.34-17.28 35.62.78-6.58 3.34-19.49 11.78-27.79zM229.18 45c3.42 2 9.83 6.57 12.31 13.19 0 0-3.25-6.62-12.34-11a5.14 5.14 0 0 1-1.41-1.1c0 .78-.1 2-.08 2.64.42 12.2 12.94 8.79 16.76 14.37-.03-.01-.42-21.62-15.24-18.1zM224.87 45a5.14 5.14 0 0 1 1.73-.45c-.64-.45-1.5-1.28-2-1.67-9.95-7.07-14.84 4.94-21.59 4.59 0 0 17.4 12.82 23.61-1.1-3.69 1.48-11.19 3.82-18 1.76.03-.04 7.26 1.39 16.25-3.13z"/></g></g></symbol><symbol viewBox="0 0 24 24" id="menu-button__menu"><path d="M4 10.5c-.83 0-1.5.67-1.5 1.5s.67 1.5 1.5 1.5 1.5-.67 1.5-1.5-.67-1.5-1.5-1.5zm0-6c-.83 0-1.5.67-1.5 1.5S3.17 7.5 4 7.5 5.5 6.83 5.5 6 4.83 4.5 4 4.5zm0 12c-.83 0-1.5.68-1.5 1.5s.68 1.5 1.5 1.5 1.5-.68 1.5-1.5-.67-1.5-1.5-1.5zM7 19h14v-2H7v2zm0-6h14v-2H7v2zm0-8v2h14V5H7z"/><path d="M0 0h24v24H0V0z" fill="none"/></symbol><symbol viewBox="0 0 24 24" id="search-button__search"><path d="M15.5 14h-.79l-.28-.27A6.471 6.471 0 0 0 16 9.5 6.5 6.5 0 1 0 9.5 16c1.61 0 3.09-.59 4.23-1.57l.27.28v.79l5 4.99L20.49 19l-4.99-5zm-6 0C7.01 14 5 11.99 5 9.5S7.01 5 9.5 5 14 7.01 14 9.5 11.99 14 9.5 14z"/><path d="M0 0h24v24H0z" fill="none"/></symbol></svg>