<svg viewBox="0 0 512 512">
<path style="fill:#82B236;" d="M294.889,361.394c16.534-1.98,30.557-12.114,37.97-26.268c25.231-0.707,45.476-21.365,45.476-46.773
	c0-3.347-0.354-6.599-1.025-9.746c17.641-4.172,30.769-20.01,30.769-38.924c0-5.633-1.167-10.995-3.276-15.862
	c13.517-8.98,22.426-24.335,22.426-41.776c0-17.453-8.909-32.808-22.426-41.788c4.018-6.234,6.352-13.658,6.352-21.624
	c0-18.148-12.091-33.468-28.648-38.358c0.224-1.886,0.354-3.806,0.354-5.751c0-26.515-21.495-48.01-48.01-48.01
	c-3.017,0-5.975,0.295-8.838,0.825C320.709,11.455,305.731,0,288.066,0C274.938,0,263.295,6.316,256,16.074
	C248.705,6.316,237.062,0,223.934,0c-17.665,0-32.643,11.455-37.946,27.34c-2.864-0.53-5.822-0.825-8.838-0.825
	c-26.515,0-48.01,21.495-48.01,48.01c0,1.944,0.13,3.865,0.354,5.751c-16.569,4.891-28.66,20.21-28.66,38.358
	c0,7.966,2.345,15.391,6.352,21.624c-13.505,8.98-22.414,24.335-22.414,41.788c0,17.441,8.909,32.796,22.414,41.776
	c-2.098,4.867-3.276,10.229-3.276,15.862c0,18.914,13.14,34.752,30.781,38.924c-0.672,3.146-1.025,6.399-1.025,9.746
	c0,25.407,20.246,46.065,45.476,46.773c7.412,14.153,21.424,24.288,37.97,26.268"/>
<path style="fill:#789E2E;" d="M218.552,335.127c-25.231-0.707-45.476-21.365-45.476-46.773c0-3.347,0.354-6.599,1.025-9.746
	c-17.641-4.172-30.781-20.01-30.781-38.924c0-5.633,1.178-10.995,3.276-15.862c-13.505-8.98-22.414-24.335-22.414-41.776
	c0-17.453,8.909-32.808,22.414-41.788c-4.007-6.234-6.352-13.658-6.352-21.624c0-18.148,12.091-33.468,28.66-38.358
	c-0.224-1.886-0.354-3.806-0.354-5.751c0-26.515,21.495-48.01,48.01-48.01c3.017,0,5.975,0.295,8.838,0.825
	c3.151-9.439,9.717-17.313,18.234-22.15C237.818,1.894,231.101,0,223.934,0c-17.665,0-32.643,11.455-37.946,27.34
	c-2.864-0.53-5.822-0.825-8.838-0.825c-26.515,0-48.01,21.495-48.01,48.01c0,1.944,0.13,3.865,0.354,5.751
	c-16.569,4.891-28.66,20.21-28.66,38.358c0,7.966,2.345,15.391,6.352,21.624c-13.505,8.98-22.414,24.335-22.414,41.788
	c0,17.441,8.909,32.796,22.414,41.776c-2.098,4.867-3.276,10.229-3.276,15.862c0,18.914,13.14,34.752,30.781,38.924
	c-0.672,3.146-1.025,6.399-1.025,9.746c0,25.407,20.246,46.065,45.476,46.773c7.412,14.153,21.424,24.288,37.97,26.268h39.411
	C239.977,359.415,225.965,349.28,218.552,335.127z"/>
<path style="fill:#CC9758;" d="M318.634,258.469l-23.746,23.746V512h-77.778V282.215l-39.113-56.554l30.934-30.934l31.347,37.946
	c10.205,12.35,28.825,13.234,40.15,1.909l18.655-18.643L318.634,258.469z"/>
<path style="fill:#B78349;" d="M243.061,298.327V512h-25.949V282.215l-39.113-56.554l18.077-18.077l33.74,48.507
	C238.439,268.487,243.061,283.227,243.061,298.327z"/>
<rect x="300.085" y="281.564" transform="matrix(-0.5331 -0.8461 0.8461 -0.5331 213.8758 732.0001)" style="fill:#CC9758;" width="17.677" height="50.84"/>
</svg>
