<svg class= "preloader__svg" viewBox="0 0 102.33 101.14">

	<g id="Layer_2" data-name="Layer 2">
		<g id="Layer_1-2" data-name="Layer 1">
			<path class="preloader__path" d="M5.93,33.06S4.8,14.64,28.35,9.49c0,0,4.17,24.56-20.16,25.12,0,0,6.67-10.28,11.21-13.39C19.4,21.22,8.53,27.39,5.93,33.06Z" />
			<path class="preloader__path" d="M37.71,4.75S51.41-7.62,70.12,7.58c0,0-16.6,18.58-32.21-.1,0,0,12.2-1.19,17.45.42C55.36,7.89,43.77,3.24,37.71,4.75Z" />
			<path class="preloader__path" d="M79.66,11.94s18.21,3,18,27.11c0,0-24.87-1.4-20-25.25,0,0,8.54,8.79,10.55,13.91C88.21,27.7,84.62,15.73,79.66,11.94Z" />
			<path class="preloader__path" d="M100.19,49.22s9,16.11-10,31c0,0-14.41-20.32,7.27-31.38,0,0-1.56,12.16-4.3,16.92C93.19,65.73,100.31,55.47,100.19,49.22Z" />
			<path class="preloader__path" d="M83.84,88.52s-7,17.09-30.43,11.5c0,0,6.91-23.94,29.07-13.87,0,0-10.48,6.36-15.91,7.19C66.56,93.34,79,92.51,83.84,88.52Z" />
			<path class="preloader__path" d="M42.91,100.23s-17.71,5.19-28-16.63c0,0,23-9.52,29,14.08,0,0-11.5-4.22-15.54-8C28.38,89.73,36.8,99,42.91,100.23Z" />
			<path class="preloader__path" d="M8.25,75.53S-6.85,64.92,3.81,43.3c0,0,21.8,12.07,7.05,31.43,0,0-3.87-11.63-3.47-17.11C7.4,57.62,5.43,70,8.25,75.53Z" />
		</g>
	</g>

</svg>
