<svg style="display:none;" aria-hidden="true" xmlns="http://www.w3.org/2000/svg" xmlns:xlink="http://www.w3.org/1999/xlink"><symbol viewBox="0 0 24 24" id="arrow-icon__arrow"><path d="M22 12l-4-4v3H3v2h15v3z"/><path d="M0 0h24v24H0z" fill="none"/></symbol><symbol viewBox="0 0 19 8" id="arrow-icon__arrow2"><title>Asset 1</title><path d="M19 4l-4-4v3H0v2h15v3z" data-name="Layer 1"/></symbol><symbol viewBox="0 0 244.39 66.15" id="logo__Greeny-logo"><defs><style>.cgreeny-logo__text{font-size:60px;fill:#1a1a1a;font-family:FredokaOne-Regular,Fredoka One}.cgreeny-logo__element-1{letter-spacing:-.03em}.cgreeny-logo__element-2{fill:#9dc44c}.cgreeny-logo__element-3{letter-spacing:-.03em}</style></defs><title>Greeny Logo</title><g id="cmain-layer" data-name="Main Layer"><g id="cmain-layer__sub" data-name="Sub Layer"><text class="cgreeny-logo__text" transform="translate(0 51.99)">G <tspan class="cgreeny-logo__element-1" x="42.84" y="0">r</tspan> <tspan class="cgreeny-logo__element-2" x="68.46" y="0">ee</tspan> <tspan class="cgreeny-logo__element-3" x="137.22" y="0">n</tspan> <tspan x="171.78" y="0">y</tspan></text><path class="cgreeny-logo__element-2" d="M237.88 15.28s-7.9 9.49-8.39 26.38a8.61 8.61 0 0 1-.73 2.91c1.18-.58 3.09-1.19 4.09-1.67 18.37-9 4.62-25.79 10.53-35.45 0 0-32.8 15.34-17.28 35.62.78-6.58 3.34-19.49 11.78-27.79zM229.18 45c3.42 2 9.83 6.57 12.31 13.19 0 0-3.25-6.62-12.34-11a5.14 5.14 0 0 1-1.41-1.1c0 .78-.1 2-.08 2.64.42 12.2 12.94 8.79 16.76 14.37-.03-.01-.42-21.62-15.24-18.1zM224.87 45a5.14 5.14 0 0 1 1.73-.45c-.64-.45-1.5-1.28-2-1.67-9.95-7.07-14.84 4.94-21.59 4.59 0 0 17.4 12.82 23.61-1.1-3.69 1.48-11.19 3.82-18 1.76.03-.04 7.26 1.39 16.25-3.13z"/></g></g></symbol><symbol viewBox="0 0 24 24" id="menu-button__menu"><path d="M4 10.5c-.83 0-1.5.67-1.5 1.5s.67 1.5 1.5 1.5 1.5-.67 1.5-1.5-.67-1.5-1.5-1.5zm0-6c-.83 0-1.5.67-1.5 1.5S3.17 7.5 4 7.5 5.5 6.83 5.5 6 4.83 4.5 4 4.5zm0 12c-.83 0-1.5.68-1.5 1.5s.68 1.5 1.5 1.5 1.5-.68 1.5-1.5-.67-1.5-1.5-1.5zM7 19h14v-2H7v2zm0-6h14v-2H7v2zm0-8v2h14V5H7z"/><path d="M0 0h24v24H0V0z" fill="none"/></symbol><symbol viewBox="0 0 24 24" id="outline-box__android"><path d="M0 0h24v24H0z" fill="none"/><path d="M6 18c0 .55.45 1 1 1h1v3.5c0 .83.67 1.5 1.5 1.5s1.5-.67 1.5-1.5V19h2v3.5c0 .83.67 1.5 1.5 1.5s1.5-.67 1.5-1.5V19h1c.55 0 1-.45 1-1V8H6v10zM3.5 8C2.67 8 2 8.67 2 9.5v7c0 .83.67 1.5 1.5 1.5S5 17.33 5 16.5v-7C5 8.67 4.33 8 3.5 8zm17 0c-.83 0-1.5.67-1.5 1.5v7c0 .83.67 1.5 1.5 1.5s1.5-.67 1.5-1.5v-7c0-.83-.67-1.5-1.5-1.5zm-4.97-5.84l1.3-1.3c.2-.2.2-.51 0-.71-.2-.2-.51-.2-.71 0l-1.48 1.48A5.84 5.84 0 0 0 12 1c-.96 0-1.86.23-2.66.63L7.85.15c-.2-.2-.51-.2-.71 0-.2.2-.2.51 0 .71l1.31 1.31A5.983 5.983 0 0 0 6 7h12c0-1.99-.97-3.75-2.47-4.84zM10 5H9V4h1v1zm5 0h-1V4h1v1z"/></symbol><symbol viewBox="0 0 24 24" id="outline-box__blocks"><path d="M4 11h5V5H4v6zm0 7h5v-6H4v6zm6 0h5v-6h-5v6zm6 0h5v-6h-5v6zm-6-7h5V5h-5v6zm6-6v6h5V5h-5z"/><path d="M0 0h24v24H0z" fill="none"/></symbol><symbol viewBox="0 0 24 24" id="outline-box__card"><path d="M0 0h24v24H0z" fill="none"/><path d="M20 4H4c-1.11 0-1.99.89-1.99 2L2 18c0 1.11.89 2 2 2h16c1.11 0 2-.89 2-2V6c0-1.11-.89-2-2-2zm0 14H4v-6h16v6zm0-10H4V6h16v2z"/></symbol><symbol viewBox="0 0 24 24" id="search-button__search"><path d="M15.5 14h-.79l-.28-.27A6.471 6.471 0 0 0 16 9.5 6.5 6.5 0 1 0 9.5 16c1.61 0 3.09-.59 4.23-1.57l.27.28v.79l5 4.99L20.49 19l-4.99-5zm-6 0C7.01 14 5 11.99 5 9.5S7.01 5 9.5 5 14 7.01 14 9.5 11.99 14 9.5 14z"/><path d="M0 0h24v24H0z" fill="none"/></symbol><symbol fill="#FFF" viewBox="0 0 24 24" id="slider-row__button-next"><path d="M8.59 16.34l4.58-4.59-4.58-4.59L10 5.75l6 6-6 6z"/><path d="M0-.25h24v24H0z" fill="none"/></symbol><symbol fill="#FFF" viewBox="0 0 24 24" id="slider-row__button-prev"><path d="M15.41 16.09l-4.58-4.59 4.58-4.59L14 5.5l-6 6 6 6z"/><path d="M0-.5h24v24H0z" fill="none"/></symbol><symbol fill="#FFF" viewBox="0 0 24 24" id="slider-row__security"><path d="M12 1L3 5v6c0 5.55 3.84 10.74 9 12 5.16-1.26 9-6.45 9-12V5l-9-4zm0 10.99h7c-.53 4.12-3.28 7.79-7 8.94V12H5V6.3l7-3.11v8.8z"/><path d="M0 0h24v24H0z" fill="none"/></symbol></svg>